<svg width="277" height="48" viewBox="0 0 277 48" fill="none" xmlns="http://www.w3.org/2000/svg">
<path d="M40.2423 16.4153L40.7783 15.2079C41.7209 13.0719 43.447 11.3594 45.616 10.4082L47.27 9.68496C47.4707 9.59461 47.6406 9.44981 47.7598 9.26779C47.879 9.08576 47.9423 8.87403 47.9423 8.65781C47.9423 8.4416 47.879 8.22992 47.7598 8.04789C47.6406 7.86581 47.4707 7.72107 47.27 7.63072L45.7076 6.95019C43.484 5.97184 41.7283 4.19596 40.8023 1.98833L40.251 0.684939C40.17 0.483035 40.0288 0.309699 39.8457 0.187523C39.6626 0.0653472 39.4462 0 39.2246 0C39.003 0 38.7866 0.0653472 38.6035 0.187523C38.4204 0.309699 38.2792 0.483035 38.1982 0.684939L37.6469 1.9862C36.7219 4.19424 34.967 5.97093 32.7438 6.95019L31.1792 7.63285C30.9791 7.72347 30.8098 7.86821 30.6911 8.05003C30.5724 8.23184 30.5093 8.44315 30.5093 8.65888C30.5093 8.87467 30.5724 9.08597 30.6911 9.26779C30.8098 9.4496 30.9791 9.59435 31.1792 9.68496L32.8354 10.406C35.004 11.3582 36.7293 13.0715 37.6709 15.2079L38.207 16.4153C38.5992 17.2985 39.8478 17.2985 40.2423 16.4153ZM39.2246 21.3345C40.709 21.3359 42.1828 21.09 43.5829 20.607V40.5484C43.5789 41.1086 43.35 41.6448 42.9455 42.0412C42.541 42.4375 41.9935 42.6622 41.4212 42.6667H2.16171C1.58819 42.6661 1.03836 42.4427 0.63302 42.0455C0.227682 41.6483 -2.90818e-07 41.1098 0 40.5484V6.38704C0.00398793 5.82677 0.232951 5.29059 0.63743 4.89424C1.0419 4.49789 1.58943 4.27321 2.16171 4.26874H26.895C26.1977 6.19947 25.9838 8.26581 26.2713 10.2942C26.5588 12.3226 27.3393 14.2539 28.5472 15.9259C29.7552 17.5978 31.3553 18.9616 33.2133 19.9028C35.0712 20.8439 37.1327 21.3349 39.2246 21.3345ZM4.35829 8.5352V12.8016H8.7166V8.5352H4.35829ZM4.35829 17.0681V21.3345H8.7166V17.0681H4.35829ZM4.35829 25.6009V29.8674H8.7166V25.6009H4.35829ZM34.8663 25.6009V29.8674H39.2246V25.6009H34.8663ZM4.35829 34.1338V38.4002H8.7166V34.1338H4.35829ZM34.8663 34.1338V38.4002H39.2246V34.1338H34.8663Z" fill="#FF0000"/>
<path d="M58.3298 42.6667V5.33333H64.8287L76.3881 33.92L87.9475 5.33333H94.4463V42.6667H89.7587V12.6933L79.0515 39.36H73.991L63.0175 12.6933V42.6667H58.3298ZM112.886 43.36C110.649 43.36 108.571 42.8089 106.654 41.7067C104.736 40.5689 103.191 38.9511 102.019 36.8533C100.847 34.7556 100.261 32.2844 100.261 29.44C100.261 26.5244 100.847 24.0178 102.019 21.92C103.191 19.8222 104.736 18.2044 106.654 17.0667C108.571 15.9289 110.649 15.36 112.886 15.36C115.159 15.36 117.201 15.84 119.012 16.8C120.859 17.7244 122.315 19.1822 123.38 21.1733C124.481 23.1289 125.031 25.6533 125.031 28.7467V30.4H104.683C104.825 32.96 105.571 35.0933 106.92 36.8C108.27 38.4711 110.223 39.3067 112.779 39.3067C114.378 39.3067 115.834 38.9333 117.148 38.1867C118.462 37.44 119.491 36.3911 120.237 35.04L124.179 36.64C121.977 41.12 118.213 43.36 112.886 43.36ZM112.779 19.4133C110.614 19.4133 108.873 20.0889 107.559 21.44C106.281 22.7556 105.428 24.4267 105.002 26.4533H120.557C120.557 25.4578 120.255 24.4267 119.651 23.36C119.083 22.2578 118.231 21.3333 117.094 20.5867C115.958 19.8044 114.52 19.4133 112.779 19.4133ZM134.851 42.6667L127.447 16.0533H132.294L137.568 38.24L143.64 16.0533H148.541L154.561 38.2933L159.888 16.0533H164.735L157.331 42.6667H151.311L146.091 23.0933L140.657 42.6667H134.851ZM175.364 42.6667V9.6H165.243V5.33333H190.173V9.6H180.052V42.6667H175.364ZM199.773 43.3067C197.18 43.3067 195.032 42.4711 193.327 40.8C191.658 39.1289 190.824 36.6933 190.824 33.4933V16H195.298V32.8533C195.298 35.1644 195.849 36.8178 196.95 37.8133C198.051 38.7733 199.489 39.2533 201.264 39.2533C203.715 39.2533 205.562 38.4178 206.804 36.7467C208.047 35.0756 208.669 32.96 208.669 30.4V16H213.144V42.6667H208.669V37.6533C208.527 38.2578 208.119 39.0222 207.444 39.9467C206.804 40.8356 205.863 41.6178 204.62 42.2933C203.378 42.9689 201.761 43.3067 199.773 43.3067ZM233.688 43.3067C232.126 43.3067 230.776 43.0222 229.64 42.4533C228.504 41.8844 227.562 41.1556 226.817 40.2667C226.071 39.3422 225.503 38.4 225.112 37.44V42.6667H220.797V4.26666H225.272V21.12C225.662 19.8756 226.302 18.8267 227.19 17.9733C228.078 17.12 229.125 16.48 230.332 16.0533C231.54 15.5911 232.747 15.36 233.955 15.36C236.299 15.36 238.34 15.9289 240.081 17.0667C241.856 18.1689 243.241 19.7689 244.236 21.8667C245.23 23.9289 245.727 26.4178 245.727 29.3333C245.727 32.32 245.212 34.8622 244.182 36.96C243.153 39.0222 241.732 40.6044 239.921 41.7067C238.11 42.7733 236.032 43.3067 233.688 43.3067ZM233.475 39.3067C235.216 39.3067 236.654 38.88 237.79 38.0267C238.962 37.1378 239.832 35.9467 240.4 34.4533C240.969 32.96 241.253 31.2889 241.253 29.44C241.253 27.5911 240.969 25.9022 240.4 24.3733C239.832 22.8444 238.962 21.6356 237.79 20.7467C236.618 19.8222 235.127 19.3778 233.316 19.4133C231.611 19.4133 230.155 19.8756 228.947 20.8C227.776 21.6889 226.87 22.88 226.231 24.3733C225.627 25.8667 225.325 27.52 225.325 29.3333C225.325 32.2489 226.018 34.6489 227.403 36.5333C228.823 38.3822 230.848 39.3067 233.475 39.3067ZM261.988 43.36C259.751 43.36 257.673 42.8089 255.756 41.7067C253.838 40.5689 252.293 38.9511 251.121 36.8533C249.949 34.7556 249.363 32.2844 249.363 29.44C249.363 26.5244 249.949 24.0178 251.121 21.92C252.293 19.8222 253.838 18.2044 255.756 17.0667C257.673 15.9289 259.751 15.36 261.988 15.36C264.261 15.36 266.303 15.84 268.114 16.8C269.96 17.7244 271.417 19.1822 272.482 21.1733C273.583 23.1289 274.134 25.6533 274.134 28.7467V30.4H253.785C253.926 32.96 254.672 35.0933 256.022 36.8C257.371 38.4711 259.325 39.3067 261.882 39.3067C263.48 39.3067 264.936 38.9333 266.25 38.1867C267.563 37.44 268.594 36.3911 269.339 35.04L273.281 36.64C271.079 41.12 267.315 43.36 261.988 43.36ZM261.882 19.4133C259.715 19.4133 257.975 20.0889 256.661 21.44C255.383 22.7556 254.531 24.4267 254.104 26.4533H269.659C269.659 25.4578 269.357 24.4267 268.753 23.36C268.185 22.2578 267.333 21.3333 266.196 20.5867C265.06 19.8044 263.621 19.4133 261.882 19.4133Z" fill="black"/>
</svg>
